HIERARCHY
ROOT Hips
{
	OFFSET 0.000000 0.000000 0.000000
	CHANNELS 6 Xposition Yposition Zposition Xrotation Yrotation Zrotation
	JOINT LeftUpLeg_virtual
	{
		OFFSET 0.000000 0.000000 0.000000
		CHANNELS 3 Xrotation Yrotation Zrotation
		JOINT LeftUpLeg
		{
			OFFSET 13.026900 -6.336304 -1.092800
			CHANNELS 3 Xrotation Yrotation Zrotation
			JOINT LeftLeg
			{
				OFFSET 0.524474 -46.096886 9.782700
				CHANNELS 3 Xrotation Yrotation Zrotation
				JOINT LeftFoot
				{
					OFFSET -0.524474 -53.427422 -12.948200
					CHANNELS 3 Xrotation Yrotation Zrotation
					JOINT LeftToeBase
					{
						OFFSET 0.192200 -14.009700 16.364100
						CHANNELS 3 Xrotation Yrotation Zrotation
						JOINT LeftToe_End
						{
							OFFSET -1.784700 -0.561700 9.474800
							CHANNELS 3 Xrotation Yrotation Zrotation
							End Site
							{
								OFFSET 0 0 0
							}
						}
					}
				}
			}
		}
	}
	JOINT RightUpLeg_virtual
	{
		OFFSET 0.000000 0.000000 0.000000
		CHANNELS 3 Xrotation Yrotation Zrotation
		JOINT RightUpLeg
		{
			OFFSET -12.883000 -6.336304 -1.092800
			CHANNELS 3 Xrotation Yrotation Zrotation
			JOINT RightLeg
			{
				OFFSET -0.524587 -46.096825 9.782800
				CHANNELS 3 Xrotation Yrotation Zrotation
				JOINT RightFoot
				{
					OFFSET 0.524587 -53.427383 -12.948300
					CHANNELS 3 Xrotation Yrotation Zrotation
					JOINT RightToeBase
					{
						OFFSET -0.192200 -14.009700 16.364100
						CHANNELS 3 Xrotation Yrotation Zrotation
						JOINT RightToe_End
						{
							OFFSET 1.784700 -0.561700 9.474800
							CHANNELS 3 Xrotation Yrotation Zrotation
							End Site
							{
								OFFSET 0 0 0
							}
						}
					}
				}
			}
		}
	}
	JOINT Spine_virtual
	{
		OFFSET 0.000000 0.000000 0.000000
		CHANNELS 3 Xrotation Yrotation Zrotation
		JOINT Spine
		{
			OFFSET 0.072000 7.257294 -0.789700
			CHANNELS 3 Xrotation Yrotation Zrotation
			JOINT Spine1
			{
				OFFSET 0.000000 12.508769 -0.658067
				CHANNELS 3 Xrotation Yrotation Zrotation
				JOINT Spine1_split
				{
					OFFSET 0.000000 12.508769 -0.658067
					CHANNELS 3 Xrotation Yrotation Zrotation
					JOINT Spine2
					{
						OFFSET 0.000000 12.508769 -0.658067
						CHANNELS 3 Xrotation Yrotation Zrotation
						JOINT Neck_virtual
						{
							OFFSET 0.000000 0.000000 0.000000
							CHANNELS 3 Xrotation Yrotation Zrotation
							JOINT Neck
							{
								OFFSET 0.000000 14.033295 7.520400
								CHANNELS 3 Xrotation Yrotation Zrotation
								JOINT Head
								{
									OFFSET 0.000000 8.198502 5.703100
									CHANNELS 3 Xrotation Yrotation Zrotation
									JOINT HeadTop_End
									{
										OFFSET 0.000000 17.760803 13.332701
										CHANNELS 3 Xrotation Yrotation Zrotation
										End Site
										{
											OFFSET 0 0 0
										}
									}
								}
							}
						}
						JOINT LeftShoulder_virtual
						{
							OFFSET 0.000000 0.000000 0.000000
							CHANNELS 3 Xrotation Yrotation Zrotation
							JOINT LeftShoulder
							{
								OFFSET 6.292450 5.785301 -0.669000
								CHANNELS 3 Xrotation Yrotation Zrotation
								JOINT LeftShoulder_split
								{
									OFFSET 6.292450 5.785301 -0.669000
									CHANNELS 3 Xrotation Yrotation Zrotation
									JOINT LeftArm
									{
										OFFSET 13.907140 -6.093903 1.965100
										CHANNELS 3 Xrotation Yrotation Zrotation
										JOINT LeftForeArm
										{
											OFFSET 34.140198 0.000000 0.000000
											CHANNELS 3 Xrotation Yrotation Zrotation
											JOINT LeftHand
											{
												OFFSET 40.960209 0.000000 0.000000
												CHANNELS 3 Xrotation Yrotation Zrotation
												End Site
												{
													OFFSET 0 0 0
												}
											}
										}
									}
								}
							}
						}
						JOINT RightShoulder_virtual
						{
							OFFSET 0.000000 0.000000 0.000000
							CHANNELS 3 Xrotation Yrotation Zrotation
							JOINT RightShoulder
							{
								OFFSET -6.292450 5.785301 -0.669000
								CHANNELS 3 Xrotation Yrotation Zrotation
								JOINT RightShoulder_split
								{
									OFFSET -6.292450 5.785301 -0.669000
									CHANNELS 3 Xrotation Yrotation Zrotation
									JOINT RightArm
									{
										OFFSET -13.907140 -6.093903 1.965100
										CHANNELS 3 Xrotation Yrotation Zrotation
										JOINT RightForeArm
										{
											OFFSET -34.140198 0.000000 0.000000
											CHANNELS 3 Xrotation Yrotation Zrotation
											JOINT RightHand
											{
												OFFSET -40.960209 0.000000 0.000000
												CHANNELS 3 Xrotation Yrotation Zrotation
												End Site
												{
													OFFSET 0 0 0
												}
											}
										}
									}
								}
							}
						}
					}
				}
			}
		}
	}
}
MOTION
Frames: 4
Frame Time: 0.03333333
-0.200169 113.141922 -8.178381 0.000000 0.000000 0.000000 2.723084 2.264370 -0.370343 -20.209072 7.458707 8.125024 29.479694 -0.268728 0.767001 -10.712963 0.929624 -4.054396 -1.107522 -0.040922 0.628303 0.000000 0.000000 0.000000 2.888652 2.616059 -0.658901 -11.356061 -6.733708 -5.635885 21.823455 -8.077441 2.030747 -9.937332 -15.864851 1.893492 -1.156876 0.044082 -0.089832 0.000000 0.000000 0.000000 3.015646 0.586126 -1.303455 19.144308 -2.310634 -0.382636 -0.435882 -0.358727 1.201556 0.639950 0.588866 0.104442 0.000000 0.000000 0.000000 0.401394 -0.241054 0.555512 15.932834 2.165315 0.689421 11.870488 2.302353 1.815022 0.000000 0.000000 0.000000 0.252714 -0.040534 0.228612 11.107957 -38.391213 -0.493235 0.403328 -1.203948 -3.307528 16.525494 15.519375 -48.243938 -0.204570 -33.380111 0.991411 0.000000 0.000000 0.000000 -0.189190 -0.058582 0.862684 1.724874 -2.576233 6.583462 -0.754449 2.297158 -0.354706 2.470653 19.085287 36.026598 0.310566 16.665199 1.612358 0.000000 0.000000 0.000000 
-0.157508 113.251762 -7.982607 0.000000 0.000000 0.000000 2.554706 2.291164 -0.279494 -19.827636 7.625618 8.092971 29.192454 -0.294044 0.713327 -10.632998 0.933894 -3.967001 -1.096095 -0.031312 0.642225 0.000000 0.000000 0.000000 2.755649 2.650463 -0.572557 -11.024537 -6.654823 -5.702489 21.643007 -7.981992 1.995822 -9.837884 -15.882891 1.890086 -1.108055 0.036098 -0.091422 0.000000 0.000000 0.000000 2.833129 0.790189 -1.185563 18.547288 -2.338203 -0.344169 -0.435240 -0.361143 1.108966 0.638536 0.592802 0.122645 0.000000 0.000000 0.000000 0.411738 -0.237911 0.454349 15.908132 1.492722 0.756349 11.839142 -0.480728 3.039504 0.000000 0.000000 0.000000 0.289935 -0.039383 0.131735 10.785309 -38.157477 -0.575276 0.374160 -1.084576 -3.130066 18.134330 16.268402 -48.549661 -0.192192 -32.855870 0.989575 0.000000 0.000000 0.000000 -0.165817 -0.055473 0.793725 1.509947 -3.010453 6.383398 -0.530208 2.360499 -0.360776 3.986153 18.699521 35.613108 0.446671 16.677181 1.494191 0.000000 0.000000 0.000000 
-0.131895 113.320503 -7.854452 0.000000 0.000000 0.000000 2.392492 2.301847 -0.223140 -19.550394 7.711620 8.046090 28.996929 -0.347162 0.695885 -10.562409 0.929892 -3.893143 -1.082689 -0.019773 0.643349 0.000000 0.000000 0.000000 2.623561 2.655520 -0.515044 -10.724030 -6.547936 -5.736807 21.520454 -7.895852 1.974205 -9.774112 -15.912550 1.870357 -1.080025 0.028842 -0.087652 0.000000 0.000000 0.000000 2.665233 0.987235 -1.088322 18.023599 -2.279729 -0.323208 -0.390329 -0.356053 1.076433 0.653751 0.577604 0.124480 0.000000 0.000000 0.000000 0.406098 -0.225976 0.408381 15.853800 0.900064 0.827428 11.741330 -2.782681 4.014776 0.000000 0.000000 0.000000 0.358447 -0.035804 0.094462 10.491353 -37.745189 -0.615592 0.384368 -0.906030 -2.989795 19.251810 16.590186 -49.063301 -0.253599 -32.355808 0.982080 0.000000 0.000000 0.000000 -0.105359 -0.043840 0.776281 1.380785 -3.355656 6.298758 -0.317616 2.469035 -0.350236 4.468582 18.478063 35.955789 0.495717 16.589452 1.418594 0.000000 0.000000 0.000000 
-0.117990 113.338348 -7.779024 0.000000 0.000000 0.000000 2.224852 2.317964 -0.182764 -19.373092 7.684523 7.972175 28.914841 -0.437488 0.720941 -10.477062 0.912921 -3.851911 -1.054802 -0.006376 0.628942 0.000000 0.000000 0.000000 2.472325 2.653502 -0.468901 -10.463186 -6.420373 -5.753322 21.479702 -7.833342 1.966157 -9.771755 -15.965188 1.825414 -1.067635 0.023136 -0.082401 0.000000 0.000000 0.000000 2.500037 1.172475 -0.995962 17.599663 -2.150904 -0.321974 -0.315791 -0.348189 1.096772 0.677863 0.576019 0.067322 0.000000 0.000000 0.000000 0.372578 -0.211139 0.409784 15.792055 0.408142 0.896615 11.646891 -4.571378 4.762530 0.000000 0.000000 0.000000 0.435460 -0.034830 0.102040 10.231769 -37.248730 -0.639276 0.364335 -0.634488 -2.903454 19.830841 16.518119 -49.659290 -0.434214 -31.690001 0.941659 0.000000 0.000000 0.000000 -0.024362 -0.026054 0.801394 1.345855 -3.595879 6.371399 -0.154865 2.539363 -0.297893 3.955926 18.362824 37.062007 0.476628 16.417734 1.362627 0.000000 0.000000 0.000000 
